<svg version="1.1" id="Layer_1" xmlns="http://www.w3.org/2000/svg" xmlns:xlink="http://www.w3.org/1999/xlink" x="0px" y="0px"
	 viewBox="0 0 460.1 600" style="enable-background:new 0 0 460.1 600;" xml:space="preserve">
<g>
	<linearGradient id="Rectangle-2_1_" gradientUnits="userSpaceOnUse" x1="-6345.1836" y1="7799.5889" x2="-6346.0771" y2="7798.6611" gradientTransform="matrix(460 0 0 -600 2919240 4679748)">
		<stop  offset="0" style="stop-color:#E6DDCE"/>
		<stop  offset="1" style="stop-color:#76685B"/>
	</linearGradient>
	<rect fill="url(#Rectangle-2_1_)" width="460" height="600"/>
	<path fill="#43413B" d="M0,538.9c28.7-15,44.9-23.5,48.6-25.4c23.7-12.2,47.6-24.1,71-36.9c17.9-9.7,31.4-24,38.2-43.7
		c1.9-5.6,2.6-11.6,3.7-17.4c0.7-3.5,0-6.7-1.9-9.8c-7.5-12.4-10.9-26.3-15.6-39.8c-2.8-8.3-5.5-16.6-8.3-24.8c-0.3-1-0.9-2-1.6-2.6
		c-11.8-10-18.2-22.9-20.4-38c-1.7-11.4-1-22.6,3.4-33.5c0.6-1.4,1.1-3,2.1-4.1c2.5-2.7,2-5.4,1.2-8.6c-3.7-15.2-6.6-30.5-7.4-46.1
		c-0.6-11.5,2.2-22.4,6.5-32.9c14.9-36,42-57.3,79.9-65.1c22.9-4.7,46-4.8,68.5,2c41.6,12.5,67.8,40.4,79.1,82.1
		c2.4,8.9,1.4,18.1,0,27c-1.9,12.1-4.6,24-6.8,36.1c-0.2,0.9-0.1,2.2,0.4,2.9c4.4,6.3,6.3,13.4,7.2,20.9c1.6,14.6-0.4,28.5-7.8,41.4
		c-3.3,5.7-7.4,10.7-12.6,14.9c-0.8,0.7-1.6,1.7-1.9,2.7c-4.9,15.6-9.6,31.4-14.8,46.9c-1.6,4.8-4.3,9.1-6.6,13.6
		c-0.6,1.2-1.1,2.4-1.8,3.5c-4.7,6.3-2.8,13.1-1.3,19.8c3.4,15.8,12.2,28.5,23.8,39.5c8.9,8.5,19.3,14.7,30.2,20.3
		c24.2,12.2,81.1,42.6,105.2,55c0.1,0,0.1,20.4,0,61.1H0V538.9z"/>
</g>
</svg>
